<svg width="22" height="22" viewBox="0 0 22 22" fill="none" xmlns="http://www.w3.org/2000/svg">
<path d="M16 1H6C3.23858 1 1 3.23858 1 6V16C1 18.7614 3.23858 21 6 21H16C18.7614 21 21 18.7614 21 16V6C21 3.23858 18.7614 1 16 1Z" stroke="#DA2535" stroke-width="1.4" stroke-linecap="round" stroke-linejoin="round"/>
<path d="M15.0002 10.3698C15.1236 11.2021 14.9815 12.052 14.594 12.7988C14.2065 13.5456 13.5933 14.1512 12.8418 14.5295C12.0903 14.9077 11.2386 15.0394 10.408 14.9057C9.57732 14.7721 8.80996 14.3799 8.21503 13.785C7.62011 13.1901 7.22793 12.4227 7.09426 11.592C6.9606 10.7614 7.09226 9.90971 7.47052 9.15819C7.84878 8.40667 8.45438 7.79355 9.20118 7.40605C9.94798 7.01856 10.7979 6.8764 11.6302 6.99981C12.4791 7.1257 13.265 7.52128 13.8719 8.12812C14.4787 8.73496 14.8743 9.52089 15.0002 10.3698Z" stroke="#DA2535" stroke-width="1.4" stroke-linecap="round" stroke-linejoin="round"/>
<path d="M16.5 5.5H16.51" stroke="#DA2535" stroke-width="1.4" stroke-linecap="round" stroke-linejoin="round"/>
</svg>
